<svg width="18" height="20" viewBox="0 0 18 20" fill="none" xmlns="http://www.w3.org/2000/svg">
<path d="M1.24999 0H11.8706L17.5 5.60752V18.75C17.5 19.4406 16.94 20 16.25 20H1.24999C0.559969 20 0 19.4406 0 18.75V1.24999C0 0.559387 0.560034 0 1.24999 0Z" fill="#E2574C"/>
<path d="M17.4819 5.62495H13.125C12.435 5.62495 11.875 5.06498 11.875 4.37496V0.0124512L17.4819 5.62495Z" fill="#B53629"/>
<path d="M12.8113 9.47683C13.0207 9.47683 13.1232 9.29433 13.1232 9.11746C13.1232 8.93432 13.0163 8.75745 12.8113 8.75745H11.6188C11.3857 8.75745 11.2557 8.95055 11.2557 9.1637V12.0943C11.2557 12.3556 11.4045 12.5006 11.6057 12.5006C11.8057 12.5006 11.9551 12.3556 11.9551 12.0943V11.29H12.6764C12.9001 11.29 13.012 11.1068 13.012 10.925C13.012 10.7469 12.9001 10.5699 12.6764 10.5699H11.9551V9.47683H12.8113ZM8.78071 8.75745H7.9082C7.67132 8.75745 7.50318 8.91996 7.50318 9.16117V12.0968C7.50318 12.3962 7.74504 12.4899 7.91816 12.4899H8.83381C9.91753 12.4899 10.6332 11.7768 10.6332 10.6762C10.6326 9.51246 9.95885 8.75745 8.78071 8.75745ZM8.82262 11.7662H8.29072V9.48122H8.77011C9.49576 9.48122 9.81134 9.96812 9.81134 10.64C9.81134 11.2687 9.50132 11.7662 8.82262 11.7662ZM5.62636 8.75745H4.76199C4.5176 8.75745 4.38135 8.91867 4.38135 9.1637V12.0943C4.38135 12.3556 4.53759 12.5006 4.74757 12.5006C4.95755 12.5006 5.11379 12.3556 5.11379 12.0943V11.2387H5.65565C6.32439 11.2387 6.87628 10.7649 6.87628 10.003C6.87634 9.25747 6.34386 8.75745 5.62636 8.75745ZM5.612 10.5512H5.11385V9.44559H5.612C5.9195 9.44559 6.11512 9.68558 6.11512 9.9987C6.11448 10.3112 5.9195 10.5512 5.612 10.5512Z" fill="white"/>
</svg>
