<svg width="58" height="58" viewBox="0 0 58 58" fill="none" xmlns="http://www.w3.org/2000/svg">
<path d="M19.3342 53.1875L13.9998 40.9906V34.625C14.7458 34.625 15.4611 34.3287 15.9886 33.8012C16.516 33.2738 16.8123 32.5584 16.8123 31.8125C16.8123 31.0666 16.516 30.3512 15.9886 29.8238C15.4611 29.2963 14.7458 29 13.9998 29H6.49984C5.75392 29 5.03855 29.2963 4.5111 29.8238C3.98366 30.3512 3.68734 31.0666 3.68734 31.8125C3.68734 32.5584 3.98366 33.2738 4.5111 33.8012C5.03855 34.3287 5.75392 34.625 6.49984 34.625V40.9906L1.16547 53.1875C0.978653 53.6155 0.901374 54.0834 0.940605 54.5487C0.979836 55.0141 1.13434 55.4624 1.39018 55.8531C1.64601 56.2439 1.99512 56.5647 2.40599 56.7868C2.81686 57.0088 3.27656 57.1251 3.74359 57.125H16.7561C17.2231 57.1251 17.6828 57.0088 18.0937 56.7868C18.5046 56.5647 18.8537 56.2439 19.1095 55.8531C19.3653 55.4624 19.5198 55.0141 19.5591 54.5487C19.5983 54.0834 19.521 53.6155 19.3342 53.1875ZM5.56234 31.8125C5.56234 31.5639 5.66111 31.3254 5.83693 31.1496C6.01274 30.9738 6.2512 30.875 6.49984 30.875H13.9998C14.2485 30.875 14.4869 30.9738 14.6628 31.1496C14.8386 31.3254 14.9373 31.5639 14.9373 31.8125C14.9373 32.0611 14.8386 32.2996 14.6628 32.4754C14.4869 32.6512 14.2485 32.75 13.9998 32.75H6.49984C6.2512 32.75 6.01274 32.6512 5.83693 32.4754C5.66111 32.2996 5.56234 32.0611 5.56234 31.8125ZM17.5436 54.8281C17.4578 54.9584 17.3408 55.0652 17.2033 55.1389C17.0658 55.2126 16.9121 55.2508 16.7561 55.25H3.74359C3.58759 55.2508 3.43387 55.2126 3.29636 55.1389C3.15885 55.0652 3.04189 54.9584 2.95609 54.8281C2.86873 54.6984 2.81598 54.5484 2.80286 54.3926C2.78973 54.2367 2.81666 54.08 2.88109 53.9375L8.29984 41.5625C8.348 41.4433 8.37344 41.3161 8.37484 41.1875V34.625H12.1248V41.1875C12.1262 41.3161 12.1517 41.4433 12.1998 41.5625L17.6186 53.9375C17.683 54.08 17.71 54.2367 17.6968 54.3926C17.6837 54.5484 17.631 54.6984 17.5436 54.8281Z" fill="black"/>
<path d="M40.25 46.9344V42.125H42.125V40.25H32.75V42.125H34.625V46.9344C32.9281 47.4031 31.8125 49.1469 31.8125 51.5C31.8125 52.2792 31.9787 53.0495 32.3 53.7594C32.3202 53.8252 32.3486 53.8881 32.3844 53.9469C32.8416 54.8996 33.559 55.7035 34.4536 56.2659C35.3483 56.8283 36.3837 57.1262 37.4405 57.1252C38.4972 57.1242 39.5321 56.8244 40.4257 56.2604C41.3193 55.6963 42.0352 54.891 42.4906 53.9375C42.528 53.883 42.5565 53.8229 42.575 53.7594C42.8963 53.0495 43.0625 52.2792 43.0625 51.5C43.0625 49.1469 41.9469 47.4031 40.25 46.9344ZM40.85 53.0375C40.8406 53.0469 40.8406 53.0563 40.8312 53.0656C40.5349 53.7171 40.0573 54.2695 39.4555 54.6568C38.8537 55.0442 38.1532 55.2502 37.4375 55.2502C36.7218 55.2502 36.0213 55.0442 35.4195 54.6568C34.8177 54.2695 34.3401 53.7171 34.0438 53.0656C34.0344 53.0563 34.0344 53.0469 34.025 53.0375C33.8054 52.5545 33.6904 52.0306 33.6875 51.5C33.6875 50.4594 34.0812 48.6875 35.5625 48.6875C35.8111 48.6875 36.0496 48.5887 36.2254 48.4129C36.4012 48.2371 36.5 47.9986 36.5 47.75V42.125H38.375V47.75C38.375 47.9986 38.4738 48.2371 38.6496 48.4129C38.8254 48.5887 39.0639 48.6875 39.3125 48.6875C40.7937 48.6875 41.1875 50.4594 41.1875 51.5C41.1846 52.0306 41.0696 52.5545 40.85 53.0375Z" fill="black"/>
<path d="M28.0625 46.9344V42.125H29.9375V40.25H20.5625V42.125H22.4375V46.9344C20.7406 47.4031 19.625 49.1469 19.625 51.5C19.625 52.2792 19.7912 53.0495 20.1125 53.7594C20.1327 53.8252 20.1611 53.8881 20.1969 53.9469C20.6541 54.8996 21.3715 55.7035 22.2661 56.2659C23.1608 56.8283 24.1962 57.1262 25.253 57.1252C26.3097 57.1242 27.3446 56.8244 28.2382 56.2604C29.1318 55.6963 29.8477 54.891 30.3031 53.9375C30.3405 53.883 30.369 53.8229 30.3875 53.7594C30.7088 53.0495 30.875 52.2792 30.875 51.5C30.875 49.1469 29.7594 47.4031 28.0625 46.9344ZM28.6625 53.0375C28.6531 53.0469 28.6531 53.0563 28.6438 53.0656C28.3474 53.7171 27.8698 54.2695 27.268 54.6568C26.6662 55.0442 25.9657 55.2502 25.25 55.2502C24.5343 55.2502 23.8338 55.0442 23.232 54.6568C22.6302 54.2695 22.1526 53.7171 21.8562 53.0656C21.8469 53.0563 21.8469 53.0469 21.8375 53.0375C21.6179 52.5545 21.5029 52.0306 21.5 51.5C21.5 50.4594 21.8937 48.6875 23.375 48.6875C23.6236 48.6875 23.8621 48.5887 24.0379 48.4129C24.2137 48.2371 24.3125 47.9986 24.3125 47.75V42.125H26.1875V47.75C26.1875 47.9986 26.2863 48.2371 26.4621 48.4129C26.6379 48.5887 26.8764 48.6875 27.125 48.6875C28.6062 48.6875 29 50.4594 29 51.5C28.9971 52.0306 28.8821 52.5545 28.6625 53.0375Z" fill="black"/>
<path d="M54.3125 17.75H44.9375C44.1923 17.7522 43.4782 18.0493 42.9512 18.5762C42.4243 19.1032 42.1272 19.8173 42.125 20.5625V22.4375C42.1272 23.1827 42.4243 23.8968 42.9512 24.4238C43.4782 24.9507 44.1923 25.2478 44.9375 25.25V52.4375C44.9375 53.6807 45.4314 54.873 46.3104 55.7521C47.1895 56.6311 48.3818 57.125 49.625 57.125C50.8682 57.125 52.0605 56.6311 52.9396 55.7521C53.8186 54.873 54.3125 53.6807 54.3125 52.4375V25.25C55.0577 25.2478 55.7718 24.9507 56.2988 24.4238C56.8257 23.8968 57.1228 23.1827 57.125 22.4375V20.5625C57.1228 19.8173 56.8257 19.1032 56.2988 18.5762C55.7718 18.0493 55.0577 17.7522 54.3125 17.75ZM52.4375 52.4375C52.4375 53.1834 52.1412 53.8988 51.6137 54.4262C51.0863 54.9537 50.3709 55.25 49.625 55.25C48.8791 55.25 48.1637 54.9537 47.6363 54.4262C47.1088 53.8988 46.8125 53.1834 46.8125 52.4375V25.25H52.4375V52.4375ZM55.25 22.4375C55.25 22.6861 55.1512 22.9246 54.9754 23.1004C54.7996 23.2762 54.5611 23.375 54.3125 23.375H44.9375C44.6889 23.375 44.4504 23.2762 44.2746 23.1004C44.0988 22.9246 44 22.6861 44 22.4375V20.5625C44 20.3139 44.0988 20.0754 44.2746 19.8996C44.4504 19.7238 44.6889 19.625 44.9375 19.625H54.3125C54.5611 19.625 54.7996 19.7238 54.9754 19.8996C55.1512 20.0754 55.25 20.3139 55.25 20.5625V22.4375Z" fill="black"/>
<path d="M38.375 38.375V34.625C38.375 34.3764 38.2762 34.1379 38.1004 33.9621C37.9246 33.7863 37.6861 33.6875 37.4375 33.6875H25.25C25.0014 33.6875 24.7629 33.7863 24.5871 33.9621C24.4113 34.1379 24.3125 34.3764 24.3125 34.625V38.375H26.1875V35.5625H36.5V38.375H38.375Z" fill="black"/>
<path d="M11.1875 23.375H27.125V31.8125H29V22.4375C29 22.1889 28.9012 21.9504 28.7254 21.7746C28.5496 21.5988 28.3111 21.5 28.0625 21.5H10.25C10.0014 21.5 9.7629 21.5988 9.58709 21.7746C9.41127 21.9504 9.3125 22.1889 9.3125 22.4375V27.125H11.1875V23.375Z" fill="black"/>
<path d="M36.5 2.75H48.6875V15.875H50.5625V1.8125C50.5625 1.56386 50.4637 1.3254 50.2879 1.14959C50.1121 0.973772 49.8736 0.875 49.625 0.875H35.5625C35.3139 0.875 35.0754 0.973772 34.8996 1.14959C34.7238 1.3254 34.625 1.56386 34.625 1.8125V31.8125H36.5V2.75Z" fill="black"/>
<path d="M4.625 12.125C5.36668 12.125 6.0917 11.9051 6.70839 11.493C7.32507 11.081 7.80572 10.4953 8.08955 9.81006C8.37338 9.12484 8.44764 8.37084 8.30295 7.64341C8.15825 6.91598 7.8011 6.2478 7.27665 5.72335C6.7522 5.1989 6.08402 4.84175 5.35659 4.69706C4.62916 4.55236 3.87516 4.62662 3.18994 4.91045C2.50471 5.19428 1.91904 5.67493 1.50699 6.29161C1.09493 6.9083 0.875 7.63332 0.875 8.375C0.875 9.36956 1.27009 10.3234 1.97335 11.0267C2.67661 11.7299 3.63044 12.125 4.625 12.125ZM4.625 6.5C4.99584 6.5 5.35835 6.60997 5.66669 6.816C5.97504 7.02202 6.21536 7.31486 6.35727 7.65747C6.49919 8.00008 6.53632 8.37708 6.46397 8.7408C6.39163 9.10451 6.21305 9.4386 5.95083 9.70083C5.6886 9.96305 5.35451 10.1416 4.99079 10.214C4.62708 10.2863 4.25008 10.2492 3.90747 10.1073C3.56486 9.96536 3.27202 9.72504 3.06599 9.4167C2.85997 9.10835 2.75 8.74584 2.75 8.375C2.75 7.87772 2.94754 7.40081 3.29917 7.04918C3.65081 6.69755 4.12772 6.5 4.625 6.5Z" fill="black"/>
<path d="M12.125 17.75C12.6813 17.75 13.225 17.5851 13.6875 17.276C14.1501 16.967 14.5105 16.5277 14.7234 16.0138C14.9363 15.4999 14.992 14.9344 14.8835 14.3888C14.7749 13.8432 14.5071 13.3421 14.1137 12.9488C13.7204 12.5554 13.2193 12.2876 12.6737 12.179C12.1281 12.0705 11.5626 12.1262 11.0487 12.3391C10.5348 12.552 10.0955 12.9124 9.78649 13.375C9.47745 13.8375 9.3125 14.3812 9.3125 14.9375C9.3125 15.6834 9.60882 16.3988 10.1363 16.9262C10.6637 17.4537 11.3791 17.75 12.125 17.75ZM12.125 14C12.3104 14 12.4917 14.055 12.6458 14.158C12.8 14.261 12.9202 14.4074 12.9911 14.5787C13.0621 14.75 13.0807 14.9385 13.0445 15.1204C13.0083 15.3023 12.919 15.4693 12.7879 15.6004C12.6568 15.7315 12.4898 15.8208 12.3079 15.857C12.126 15.8932 11.9375 15.8746 11.7662 15.8036C11.5949 15.7327 11.4485 15.6125 11.3455 15.4583C11.2425 15.3042 11.1875 15.1229 11.1875 14.9375C11.1875 14.6889 11.2863 14.4504 11.4621 14.2746C11.6379 14.0988 11.8764 14 12.125 14Z" fill="black"/>
<path d="M14.9375 8.375C15.6792 8.375 16.4042 8.15507 17.0209 7.74301C17.6376 7.33096 18.1182 6.74529 18.402 6.06006C18.6859 5.37484 18.7601 4.62084 18.6154 3.89341C18.4708 3.16598 18.1136 2.4978 17.5891 1.97335C17.0647 1.4489 16.3965 1.09175 15.6691 0.947057C14.9417 0.802362 14.1877 0.876625 13.5024 1.16045C12.8172 1.44428 12.2315 1.92493 11.8195 2.54161C11.4074 3.1583 11.1875 3.88332 11.1875 4.625C11.1875 5.61956 11.5826 6.57339 12.2858 7.27665C12.9891 7.97991 13.9429 8.375 14.9375 8.375ZM14.9375 2.75C15.3083 2.75 15.6709 2.85997 15.9792 3.066C16.2875 3.27202 16.5279 3.56486 16.6698 3.90747C16.8117 4.25008 16.8488 4.62708 16.7765 4.9908C16.7041 5.35451 16.5255 5.6886 16.2633 5.95083C16.0011 6.21305 15.667 6.39163 15.3033 6.46397C14.9396 6.53632 14.5626 6.49919 14.22 6.35727C13.8774 6.21536 13.5845 5.97504 13.3785 5.66669C13.1725 5.35835 13.0625 4.99584 13.0625 4.625C13.0625 4.12772 13.26 3.65081 13.6117 3.29918C13.9633 2.94755 14.4402 2.75 14.9375 2.75Z" fill="black"/>
<path d="M27.125 16.8125C27.125 17.3688 27.2899 17.9125 27.599 18.375C27.908 18.8376 28.3473 19.198 28.8612 19.4109C29.3751 19.6238 29.9406 19.6795 30.4862 19.571C31.0318 19.4624 31.5329 19.1946 31.9262 18.8012C32.3196 18.4079 32.5874 17.9068 32.696 17.3612C32.8045 16.8156 32.7488 16.2501 32.5359 15.7362C32.323 15.2223 31.9625 14.783 31.5 14.474C31.0375 14.1649 30.4938 14 29.9375 14C29.1916 14 28.4762 14.2963 27.9488 14.8238C27.4213 15.3512 27.125 16.0666 27.125 16.8125ZM30.875 16.8125C30.875 16.9979 30.82 17.1792 30.717 17.3333C30.614 17.4875 30.4676 17.6077 30.2963 17.6786C30.125 17.7496 29.9365 17.7682 29.7546 17.732C29.5727 17.6958 29.4057 17.6065 29.2746 17.4754C29.1435 17.3443 29.0542 17.1773 29.018 16.9954C28.9818 16.8135 29.0004 16.625 29.0714 16.4537C29.1423 16.2824 29.2625 16.136 29.4167 16.033C29.5708 15.93 29.7521 15.875 29.9375 15.875C30.1861 15.875 30.4246 15.9738 30.6004 16.1496C30.7762 16.3254 30.875 16.5639 30.875 16.8125Z" fill="black"/>
<path d="M28.0625 6.5C28.6188 6.5 29.1625 6.33505 29.625 6.02601C30.0875 5.71697 30.448 5.27772 30.6609 4.7638C30.8738 4.24988 30.9295 3.68438 30.821 3.13881C30.7124 2.59324 30.4446 2.0921 30.0512 1.69876C29.6579 1.30543 29.1568 1.03756 28.6112 0.929043C28.0656 0.820522 27.5001 0.876219 26.9862 1.08909C26.4723 1.30196 26.033 1.66245 25.724 2.12496C25.4149 2.58747 25.25 3.13124 25.25 3.6875C25.25 4.43342 25.5463 5.14879 26.0738 5.67624C26.6012 6.20368 27.3166 6.5 28.0625 6.5ZM28.0625 2.75C28.2479 2.75 28.4292 2.80498 28.5833 2.908C28.7375 3.01101 28.8577 3.15743 28.9286 3.32874C28.9996 3.50004 29.0182 3.68854 28.982 3.8704C28.9458 4.05226 28.8565 4.2193 28.7254 4.35041C28.5943 4.48153 28.4273 4.57081 28.2454 4.60699C28.0635 4.64316 27.875 4.6246 27.7037 4.55364C27.5324 4.48268 27.386 4.36252 27.283 4.20835C27.18 4.05418 27.125 3.87292 27.125 3.6875C27.125 3.43886 27.2238 3.2004 27.3996 3.02459C27.5754 2.84877 27.8139 2.75 28.0625 2.75Z" fill="black"/>
<path d="M54.3125 10.25C53.7562 10.25 53.2125 10.415 52.75 10.724C52.2874 11.033 51.927 11.4723 51.7141 11.9862C51.5012 12.5001 51.4455 13.0656 51.554 13.6112C51.6626 14.1568 51.9304 14.6579 52.3238 15.0512C52.7171 15.4446 53.2182 15.7124 53.7638 15.821C54.3094 15.9295 54.8749 15.8738 55.3888 15.6609C55.9027 15.448 56.342 15.0876 56.651 14.625C56.96 14.1625 57.125 13.6188 57.125 13.0625C57.125 12.3166 56.8287 11.6012 56.3012 11.0738C55.7738 10.5463 55.0584 10.25 54.3125 10.25ZM54.3125 14C54.1271 14 53.9458 13.945 53.7917 13.842C53.6375 13.739 53.5173 13.5926 53.4464 13.4213C53.3754 13.25 53.3568 13.0615 53.393 12.8796C53.4292 12.6977 53.5185 12.5307 53.6496 12.3996C53.7807 12.2685 53.9477 12.1792 54.1296 12.143C54.3115 12.1068 54.5 12.1254 54.6713 12.1964C54.8426 12.2673 54.989 12.3875 55.092 12.5417C55.195 12.6958 55.25 12.8771 55.25 13.0625C55.25 13.3111 55.1512 13.5496 54.9754 13.7254C54.7996 13.9012 54.5611 14 54.3125 14Z" fill="black"/>
<path d="M54.3125 6.5C54.8688 6.5 55.4125 6.33505 55.875 6.02601C56.3376 5.71697 56.698 5.27772 56.9109 4.7638C57.1238 4.24988 57.1795 3.68438 57.071 3.13881C56.9624 2.59324 56.6946 2.0921 56.3012 1.69876C55.9079 1.30543 55.4068 1.03756 54.8612 0.929043C54.3156 0.820522 53.7501 0.876219 53.2362 1.08909C52.7223 1.30196 52.283 1.66245 51.974 2.12496C51.665 2.58747 51.5 3.13124 51.5 3.6875C51.5 4.43342 51.7963 5.14879 52.3238 5.67624C52.8512 6.20368 53.5666 6.5 54.3125 6.5ZM54.3125 2.75C54.4979 2.75 54.6792 2.80498 54.8333 2.908C54.9875 3.01101 55.1077 3.15743 55.1786 3.32874C55.2496 3.50004 55.2682 3.68854 55.232 3.8704C55.1958 4.05226 55.1065 4.2193 54.9754 4.35041C54.8443 4.48153 54.6773 4.57081 54.4954 4.60699C54.3135 4.64316 54.125 4.6246 53.9537 4.55364C53.7824 4.48268 53.636 4.36252 53.533 4.20835C53.43 4.05418 53.375 3.87292 53.375 3.6875C53.375 3.43886 53.4738 3.2004 53.6496 3.02459C53.8254 2.84877 54.0639 2.75 54.3125 2.75Z" fill="black"/>
<path d="M23.375 14.9375C24.1167 14.9375 24.8417 14.7176 25.4584 14.3055C26.0751 13.8935 26.5557 13.3078 26.8396 12.6226C27.1234 11.9373 27.1976 11.1833 27.0529 10.4559C26.9083 9.72848 26.5511 9.0603 26.0267 8.53585C25.5022 8.0114 24.834 7.65425 24.1066 7.50956C23.3792 7.36486 22.6252 7.43912 21.9399 7.72295C21.2547 8.00678 20.669 8.48743 20.257 9.10411C19.8449 9.7208 19.625 10.4458 19.625 11.1875C19.625 12.1821 20.0201 13.1359 20.7234 13.8392C21.4266 14.5424 22.3804 14.9375 23.375 14.9375ZM23.375 9.3125C23.7458 9.3125 24.1084 9.42247 24.4167 9.6285C24.725 9.83452 24.9654 10.1274 25.1073 10.47C25.2492 10.8126 25.2863 11.1896 25.214 11.5533C25.1416 11.917 24.963 12.2511 24.7008 12.5133C24.4386 12.7755 24.1045 12.9541 23.7408 13.0265C23.3771 13.0988 23.0001 13.0617 22.6575 12.9198C22.3149 12.7779 22.022 12.5375 21.816 12.2292C21.61 11.9209 21.5 11.5583 21.5 11.1875C21.5 10.6902 21.6975 10.2133 22.0492 9.86168C22.4008 9.51005 22.8777 9.3125 23.375 9.3125Z" fill="black"/>
<path d="M39.3125 9.3125C39.3125 10.0542 39.5324 10.7792 39.9445 11.3959C40.3565 12.0126 40.9422 12.4932 41.6274 12.777C42.3127 13.0609 43.0667 13.1351 43.7941 12.9904C44.5215 12.8457 45.1897 12.4886 45.7142 11.9641C46.2386 11.4397 46.5958 10.7715 46.7404 10.0441C46.8851 9.31666 46.8109 8.56266 46.5271 7.87744C46.2432 7.19221 45.7626 6.60654 45.1459 6.19449C44.5292 5.78243 43.8042 5.5625 43.0625 5.5625C42.0679 5.5625 41.1141 5.95759 40.4109 6.66085C39.7076 7.36411 39.3125 8.31794 39.3125 9.3125ZM44.9375 9.3125C44.9375 9.68334 44.8275 10.0459 44.6215 10.3542C44.4155 10.6625 44.1226 10.9029 43.78 11.0448C43.4374 11.1867 43.0604 11.2238 42.6967 11.1515C42.333 11.0791 41.9989 10.9005 41.7367 10.6383C41.4745 10.3761 41.2959 10.042 41.2235 9.67829C41.1512 9.31458 41.1883 8.93758 41.3302 8.59497C41.4721 8.25236 41.7125 7.95952 42.0208 7.75349C42.3291 7.54747 42.6917 7.4375 43.0625 7.4375C43.5598 7.4375 44.0367 7.63504 44.3883 7.98667C44.74 8.33831 44.9375 8.81522 44.9375 9.3125Z" fill="black"/>
</svg>
