<svg width="1337" height="680" viewBox="0 0 1337 680" fill="none" xmlns="http://www.w3.org/2000/svg">
<path fill-rule="evenodd" clip-rule="evenodd" d="M591.225 18.0135C576.788 27.8655 557.607 40.936 548.6 47.0585C539.594 53.181 532.225 58.26 532.225 58.3455C532.225 58.4305 574.675 58.5 626.558 58.5H720.891L718.183 56.6095C716.694 55.5695 710.525 51.3595 704.475 47.2535C698.425 43.148 689.425 37.0395 684.475 33.6795C679.525 30.3195 671.65 24.9745 666.975 21.8025C662.3 18.63 655.55 14.0475 651.975 11.619C648.4 9.1905 643.082 5.583 640.158 3.602L634.84 0L626.158 0.05L617.475 0.1L591.225 18.0135ZM428.69 128.563C424.172 131.623 417.325 136.282 413.475 138.917C409.625 141.552 405.607 144.281 404.545 144.98L402.615 146.25L514.42 146.376C575.913 146.446 676.569 146.446 738.1 146.376L849.975 146.25L832.975 134.641L815.975 123.031L626.44 123.016L436.905 123L428.69 128.563ZM282.304 228.005C273.135 234.286 265.504 239.555 265.346 239.713C265.188 239.871 427.691 240 626.465 240H987.871L976.423 232.184C970.127 227.886 962.356 222.598 959.154 220.434L953.332 216.5L626.154 216.542L298.975 216.583L282.304 228.005ZM126.772 333.776L109.568 345.5H626.147C910.265 345.5 1142.73 345.429 1142.73 345.342C1142.73 345.192 1132.78 338.38 1116.14 327.125L1108.56 322L626.267 322.026L143.975 322.051L126.772 333.776ZM15.2252 432.298C7.11273 437.96 0.261735 442.798 0.000235269 443.047C-0.283765 443.318 256.575 443.5 639.125 443.5H1278.73V440.575V437.65L1271.95 432.95C1268.23 430.365 1263.22 426.851 1260.83 425.141L1256.48 422.031L643.225 422.017L29.9752 422.004L15.2252 432.298ZM1297.23 483C1297.23 500.6 1297.08 515 1296.91 515C1296.73 515 1294.99 513.947 1293.03 512.659C1284.97 507.346 1272.15 502.479 1259.73 500.013C1242.68 496.631 1217.69 496.818 1199.48 500.464C1164.86 507.393 1144.11 522.139 1135.4 546C1130.48 559.482 1131.34 576.851 1137.55 589.154C1141.06 596.118 1149.16 605.692 1155.73 610.652C1176.75 626.524 1211.29 634.998 1244.98 632.549C1266.84 630.96 1283.6 625.726 1295.62 616.73C1297.63 615.228 1299.37 614 1299.5 614C1299.62 614 1299.73 617.6 1299.73 622V630H1318.23H1336.73V540.5V451H1316.98H1297.23V483ZM96.9752 498.015C77.0547 499.782 61.1727 505.024 47.5602 514.325C45.4072 515.797 43.5507 517 43.4352 517C43.3197 517 43.2252 513.287 43.2252 508.75V500.5H25.2252H7.22524V590.25V680H26.9752H46.7252V648.256V616.513L49.5737 618.334C55.8127 622.325 66.9032 626.787 76.7252 629.258C110 637.629 155.64 631.259 181.975 614.568C187.059 611.346 189.5 609.415 193.842 605.177C200.973 598.218 205.881 590.606 208.728 582.085C215.666 561.322 210.361 539.988 194.276 523.969C180.835 510.583 160.417 502.101 133.475 498.712C126.324 497.813 104.054 497.387 96.9752 498.015ZM339.475 498.017C322.581 499.379 309.592 501.826 296.725 506.072C272.787 513.97 257.743 525.417 250.393 541.326C246.927 548.827 245.571 555.557 245.573 565.25C245.579 589.218 256.874 606.005 281.229 618.247C301.628 628.499 330.759 633.758 361.975 632.823C400.192 631.679 432.7 621.536 450.032 605.35C454.967 600.742 457.917 596.721 460.744 590.75C464.633 582.536 466.226 574.806 466.225 564.154C466.223 554.086 464.643 547.09 460.627 539.37C454.888 528.338 444.83 519.495 429.475 511.98C415.303 505.045 400.08 500.939 380.225 498.697C372.218 497.793 347.393 497.378 339.475 498.017ZM595.725 497.838C562.548 500.244 537.288 508.237 521.83 521.221C519.435 523.232 516.556 525.974 515.433 527.314C509.989 533.808 505.6 542.146 503.358 550.25C502.05 554.979 501.975 555.819 501.975 565.75C501.975 575.665 502.051 576.522 503.343 581.141C507.101 594.584 514.793 604.883 527.241 613.141C544.153 624.36 565.651 630.591 593.975 632.484C646.716 636.008 689.817 620.782 703.589 593.761C704.907 591.174 706.84 585.949 706.576 585.685C706.493 585.602 702.949 585.289 698.7 584.99C694.451 584.691 688.05 584.238 684.475 583.985C680.9 583.732 675.698 583.375 672.914 583.193L667.853 582.861L666.782 586.078C665.155 590.967 662.37 595.345 658.225 599.526C648.022 609.818 631.279 615 608.225 615C590.691 615 577.431 612.255 565.725 606.202C553.881 600.077 547.268 591.897 543.885 579.186C542.727 574.833 542.566 573.247 542.523 565.75C542.472 556.686 543.095 552.559 545.467 546.25C551.669 529.754 569.82 519.022 596.681 515.968C604.603 515.067 623.15 515.626 629.225 516.948C645.838 520.565 656.791 527.448 662.538 537.88C663.559 539.734 664.458 541.332 664.535 541.433C664.612 541.533 668.68 541.26 673.575 540.826C678.47 540.391 687.031 539.65 692.6 539.177C700.327 538.521 702.725 538.158 702.725 537.644C702.725 537.274 702.019 535.571 701.157 533.86C691.896 515.492 669.494 503.323 637.475 499.267C625.225 497.715 606.333 497.069 595.725 497.838ZM824.475 497.81C782.192 500.457 758.367 507.583 744.897 521.61C741.069 525.597 736.569 532.425 735.514 535.847C735.044 537.371 732.429 537.065 769.747 539.847L773.518 540.128L775.497 536.706C778.026 532.33 783.463 526.569 787.403 524.09C793.334 520.358 801.783 517.845 813.225 516.41C820.334 515.518 849.125 515.517 856.225 516.409C870.314 518.178 881.418 521.891 886.427 526.509C890.686 530.434 893.121 537.725 892.458 544.561L892.137 547.872L885.806 548.907C869.148 551.631 851.443 553.402 817.475 555.74C789.047 557.697 775.355 559.803 760.96 564.432C744.151 569.836 732.459 578.913 728.992 589.247C727.778 592.865 727.872 599.518 729.189 603.266C733.196 614.666 746.888 624.059 766.225 628.673C792.917 635.041 831.929 634.249 860.475 626.759C871.616 623.836 879.792 620.862 894.987 614.205C895.268 614.081 895.914 615.391 896.423 617.115C897.569 620.998 899.269 624.415 901.629 627.576L903.439 630H924.18H944.921L943.411 628.375C938.898 623.522 935.586 617.505 934.479 612.151C933.113 605.542 932.735 596.462 932.725 570C932.715 544.181 932.33 534.032 931.158 528.75C929.74 522.36 923.684 514.551 917.068 510.583C907.425 504.8 891.397 500.688 870.725 498.693C863.389 497.985 831.428 497.375 824.475 497.81ZM1070.23 498.296C1056.18 500.33 1045.92 505.527 1033.85 516.73L1030.23 520.094V510.297V500.5H1012.48H994.725V565.25V630H1014.48H1034.23V593.414C1034.23 553.655 1034.29 552.561 1037.09 544.763C1040.84 534.31 1045.54 529.013 1054.81 524.812C1067.25 519.169 1084.99 518.416 1101.98 522.813C1104.73 523.525 1107.43 524.198 1107.98 524.309C1108.8 524.475 1110.16 522.731 1115.57 514.63C1119.19 509.196 1122 504.59 1121.81 504.394C1121.2 503.767 1108.9 500.576 1103.09 499.537C1091.24 497.417 1079.38 496.969 1070.23 498.296ZM120.833 515.271C146.406 518.769 164.802 532.088 169.439 550.462C172.451 562.401 171.13 577.295 166.187 587.1C159.14 601.079 141.931 611.157 119.801 614.263C109.831 615.663 95.6077 615.142 85.2252 612.997C78.0972 611.525 67.2242 607.044 61.4017 603.18C47.8462 594.183 41.4467 579.167 43.2227 560.526C44.3562 548.632 48.5247 539.923 56.7142 532.341C66.0632 523.685 80.1227 517.519 95.7252 515.232C101.814 514.34 114.162 514.359 120.833 515.271ZM368.797 516.026C387.141 517.888 403.645 524.57 413.646 534.183C423.528 543.682 427.514 558.293 424.678 574.633C420.943 596.16 401.949 610.198 371.04 614.274C359.942 615.738 342.944 615.08 331.457 612.742C319.941 610.398 307.181 604.464 299.975 598.101C294.899 593.618 290.19 586.431 288.417 580.459C285.075 569.207 285.68 555.856 289.988 545.75C296.795 529.785 317.44 518.5 344.725 515.831C348.909 515.422 364.057 515.545 368.797 516.026ZM1252.48 516.66C1261.27 518.309 1266.81 520.049 1273.48 523.255C1292.15 532.232 1300.44 545.718 1300.38 567C1300.35 579.299 1297.6 587.621 1290.83 595.889C1286.96 600.616 1277.9 606.462 1269.47 609.664C1259.6 613.413 1250.08 615 1237.45 615C1222.64 615 1212.48 612.915 1200.91 607.497C1183.25 599.229 1175.36 588.733 1173.18 570.607C1171.85 559.536 1174.86 545.879 1180.44 537.657C1187.83 526.76 1204.5 518.388 1223.56 515.997C1228.77 515.343 1247.79 515.779 1252.48 516.66ZM892.092 573.625C891.697 585.83 890.25 590.265 884.737 596.159C873.247 608.441 847.991 616.002 818.475 615.998C800.58 615.995 788.022 613.599 779.803 608.62C768.264 601.63 767.081 591.634 776.896 584.062C784.768 577.988 796.775 575.496 831.475 572.735C841.893 571.906 855.039 570.557 865.725 569.219C872.86 568.326 889.303 565.589 889.656 565.235C889.786 565.106 890.45 565 891.131 565H892.37L892.092 573.625Z" fill="#007CC3"/>
</svg>
