<svg width="60" height="60" viewBox="0 0 60 60" fill="none" xmlns="http://www.w3.org/2000/svg">
<path d="M54.1946 7.96875H5.80545C2.60417 7.96875 0 10.5728 0 13.7742V40.6007C0 43.802 2.60417 46.4062 5.80545 46.4062H36.9591C37.4768 46.4062 37.8966 45.9864 37.8966 45.4686C37.8966 44.9509 37.4768 44.5311 36.9591 44.5311H5.80545C3.63812 44.5311 1.87495 42.7676 1.87495 40.6006V13.7742C1.87495 11.6069 3.63812 9.8437 5.80545 9.8437H54.1944C56.3617 9.8437 58.1249 11.6071 58.1249 13.7742V40.6007C58.1249 42.7681 56.3615 44.5312 54.1944 44.5312H47.2395C46.7218 44.5312 46.302 44.951 46.302 45.4688C46.302 45.9865 46.7218 46.4063 47.2395 46.4063H54.1944C57.3957 46.4063 59.9999 43.8021 59.9999 40.6009V13.7742C60 10.5728 57.3958 7.96875 54.1946 7.96875Z" fill="black"/>
<path d="M15.9374 13.5938H6.56254C6.04481 13.5938 5.625 14.0136 5.625 14.5313C5.625 15.049 6.04481 15.4688 6.56254 15.4688H15.9376C16.4553 15.4688 16.8751 15.049 16.8751 14.5313C16.8751 14.0136 16.4552 13.5938 15.9374 13.5938Z" fill="black"/>
<path d="M54.3751 18.2812H35.625C35.1073 18.2812 34.6875 18.7011 34.6875 19.2188C34.6875 19.7365 35.1073 20.1563 35.625 20.1563H54.375C54.8927 20.1563 55.3125 19.7365 55.3125 19.2188C55.3125 18.7011 54.8928 18.2812 54.3751 18.2812Z" fill="black"/>
<path d="M45.9375 13.5938H20.625C20.1073 13.5938 19.6875 14.0136 19.6875 14.5313C19.6875 15.049 20.1073 15.4688 20.625 15.4688H45.9375C46.4553 15.4688 46.8751 15.049 46.8751 14.5313C46.8751 14.0136 46.4553 13.5938 45.9375 13.5938Z" fill="black"/>
<path d="M24.3749 24.8438H6.56255C6.04481 24.8438 5.625 25.2636 5.625 25.7813C5.625 26.299 6.04481 26.7188 6.56255 26.7188H24.3751C24.8928 26.7188 25.3126 26.299 25.3126 25.7813C25.3126 25.2636 24.8927 24.8438 24.3749 24.8438Z" fill="black"/>
<path d="M24.3749 29.5312H6.56255C6.04481 29.5312 5.625 29.9511 5.625 30.4688C5.625 30.9865 6.04481 31.4064 6.56255 31.4064H24.3751C24.8928 31.4064 25.3126 30.9865 25.3126 30.4688C25.3126 29.9511 24.8927 29.5312 24.3749 29.5312Z" fill="black"/>
<path d="M31.875 18.2812H6.56255C6.04481 18.2812 5.625 18.7011 5.625 19.2188C5.625 19.7365 6.04481 20.1563 6.56255 20.1563H31.875C32.3928 20.1563 32.8126 19.7365 32.8126 19.2188C32.8126 18.7011 32.3928 18.2812 31.875 18.2812Z" fill="black"/>
<path d="M13.5608 37.9688L14.3724 36.5626C14.5396 36.2724 14.5396 35.9148 14.3724 35.625C14.2049 35.3348 13.8955 35.1563 13.5603 35.1563H11.9366L11.125 33.7501C10.7899 33.1696 9.83591 33.1696 9.50083 33.7501L8.68922 35.1563H7.06544C6.73022 35.1563 6.42096 35.3348 6.25328 35.625C6.08615 35.9146 6.08615 36.2724 6.25328 36.5626L7.06489 37.9688L6.25328 39.3751C6.08615 39.6652 6.08615 40.0228 6.25328 40.3126C6.42082 40.6028 6.73022 40.7813 7.06544 40.7813H8.68922L9.50083 42.1876C9.66837 42.4777 9.97778 42.6563 10.313 42.6563C10.6482 42.6563 10.9575 42.4777 11.1252 42.1876L11.9368 40.7813H13.5605C13.8956 40.7813 14.205 40.6028 14.3727 40.3126C14.5398 40.023 14.5398 39.6652 14.3727 39.3751L13.5608 37.9688ZM11.6662 38.4375L11.9368 38.9062H11.3956C11.0605 38.9062 10.7511 39.0847 10.5834 39.3749L10.313 39.8436L10.0425 39.3749C9.87492 39.0847 9.56551 38.9062 9.23029 38.9062H8.68922L8.95962 38.4375C9.12675 38.1473 9.12675 37.7902 8.95962 37.5L8.68922 37.0313H9.23043C9.56565 37.0313 9.87492 36.8527 10.0426 36.5626L10.313 36.0939L10.5834 36.5626C10.7509 36.8527 11.0603 37.0313 11.3956 37.0313H11.9368L11.6662 37.5C11.4991 37.7903 11.4991 38.1473 11.6662 38.4375Z" fill="black"/>
<path d="M23.8735 37.9688L24.6851 36.5626C24.8522 36.2724 24.8522 35.9148 24.6851 35.625C24.5175 35.3348 24.2081 35.1563 23.8729 35.1563H22.2491L21.4375 33.7501C21.1023 33.1696 20.1484 33.1696 19.8133 33.7501L19.0017 35.1563H17.3779C17.0429 35.1563 16.7335 35.3348 16.5658 35.625C16.3986 35.9146 16.3986 36.2724 16.5658 36.5626L17.3774 37.9688L16.5658 39.3751C16.3986 39.6652 16.3986 40.0228 16.5658 40.3126C16.7333 40.6028 17.0427 40.7813 17.3779 40.7813H19.0017L19.8133 42.1876C19.9809 42.4777 20.2903 42.6563 20.6255 42.6563C20.9607 42.6563 21.27 42.4777 21.4377 42.1876L22.2493 40.7813H23.8731C24.2081 40.7813 24.5175 40.6028 24.6852 40.3126C24.8523 40.023 24.8523 39.6652 24.6852 39.3751L23.8735 37.9688ZM21.9787 38.4375L22.2493 38.9062H21.7081C21.373 38.9062 21.0636 39.0847 20.8959 39.3749L20.6255 39.8436L20.3551 39.3749C20.1876 39.0847 19.8782 38.9062 19.5429 38.9062H19.0017L19.2721 38.4375C19.4392 38.1473 19.4392 37.7902 19.2721 37.5L19.0017 37.0313H19.5429C19.878 37.0313 20.1874 36.8527 20.3551 36.5626L20.6255 36.0939L20.8959 36.5626C21.0634 36.8527 21.3728 37.0313 21.7081 37.0313H22.2493L21.9787 37.5C21.8116 37.7903 21.8116 38.1473 21.9787 38.4375Z" fill="black"/>
<path d="M46.8751 37.0312C46.3574 37.0312 45.9375 37.4511 45.9375 37.9688V49.1432L42.7731 46.6117C42.4307 46.338 41.9446 46.338 41.6021 46.6117L38.4376 49.1432V37.9688C38.4376 37.4511 38.0178 37.0312 37.5 37.0312C36.9823 37.0312 36.5625 37.4511 36.5625 37.9688V51.0937C36.5625 51.4539 36.769 51.7826 37.0941 51.9387C37.4181 52.0943 37.804 52.0509 38.0855 51.8257L42.1875 48.5445L46.2895 51.8257C46.459 51.9611 46.6662 52.0313 46.8749 52.0313C47.0132 52.0313 47.1519 52.0005 47.2809 51.9387C47.6059 51.7826 47.8125 51.4541 47.8125 51.0937V37.9688C47.8126 37.4511 47.3928 37.0312 46.8751 37.0312Z" fill="black"/>
<path d="M42.1875 21.0938C37.0179 21.0938 32.8125 25.2992 32.8125 30.4688C32.8125 35.6384 37.0179 39.8438 42.1875 39.8438C47.3572 39.8438 51.5626 35.6384 51.5626 30.4688C51.5626 25.2992 47.3572 21.0938 42.1875 21.0938ZM42.1875 37.9687C38.052 37.9687 34.6876 34.6043 34.6876 30.4688C34.6876 26.3333 38.052 22.9688 42.1875 22.9688C46.3231 22.9688 49.6875 26.3333 49.6875 30.4688C49.6875 34.6043 46.3231 37.9687 42.1875 37.9687Z" fill="black"/>
</svg>
