<svg width="60" height="60" viewBox="0 0 60 60" fill="none" xmlns="http://www.w3.org/2000/svg">
<g clip-path="url(#clip0)">
<path d="M30.0106 0.00610384C18.0069 0.0043542 7.15813 7.15949 2.43349 18.1943L2.05957 18.3183L2.20454 18.7532C-4.01617 34.0958 3.37842 51.5762 18.721 57.7969C22.3043 59.2499 26.1349 59.9957 30.0017 59.9936C46.5668 59.9961 59.9975 46.5694 60 30.0044C60.0025 13.4393 46.5758 0.00847834 30.0106 0.00610384ZM53.5373 45.1222L51.9972 43.583V39.9978C51.9989 39.8431 51.9647 39.6901 51.8972 39.5509L47.998 31.7635V28.0003C47.998 27.6661 47.8312 27.3539 47.5531 27.1684L44.5537 25.1689C44.3186 25.0119 44.0281 24.9618 43.7539 25.0309L40.0806 25.9487L33.9109 23.3013L33.0621 17.3545L35.4146 15.003H40.4646L42.1642 17.5574C42.3177 17.7871 42.5595 17.9432 42.8321 17.9884L48.8308 18.9881C48.9915 19.0151 49.1563 19.002 49.3107 18.9502L54.8356 17.1085C59.4695 26.0011 58.9738 36.6965 53.5373 45.1222ZM49.4137 9.85805L47.788 10.9418L43.256 10.035L40.3156 9.05622C40.1356 8.99511 39.9419 8.98736 39.7577 9.03422L36.0405 9.96303L34.4108 9.42014L35.6186 7.00465H38.9999C39.155 7.00477 39.3079 6.9689 39.4468 6.89967L42.9061 5.17003C45.2883 6.41352 47.4799 7.99219 49.4137 9.85805ZM19.051 4.23822L21.4505 5.83789C21.5685 5.91637 21.7017 5.96886 21.8414 5.99186L26.6864 6.79969L26.2135 8.21439L23.6891 9.05722C23.463 9.13245 23.2711 9.28592 23.1482 9.49013L20.2768 14.2751L15.6647 17.0426L8.86615 18.0134C8.37338 18.083 8.00696 18.5045 8.00633 19.0021V22.0015C8.00633 22.2667 8.11181 22.5209 8.29927 22.7084L10.0059 24.415V26.1327L5.84678 23.3592L4.33809 18.8332C7.2085 12.2745 12.4695 7.05564 19.051 4.23822ZM16.2046 37.0184L11.6856 36.1136L10.0059 32.7633V30.4138L13.7311 26.6885L15.1098 29.447C15.2792 29.7859 15.6257 30 16.0047 29.9999H22.4373L25.1458 34.5139C25.3265 34.8147 25.6517 34.9987 26.0026 34.9988H28.782L28.0821 38.5051L24.2969 42.2903C24.1091 42.4776 24.0034 42.7318 24.003 42.9971V45.4966L20.4037 48.1961C20.1521 48.3849 20.0038 48.6812 20.0038 48.9959V52.6072L18.7601 52.1952L17.0045 47.8041V37.9982C17.0046 37.523 16.6702 37.1134 16.2046 37.0184ZM13.1992 52.3878C3.77259 45.3157 -0.213957 33.0962 3.22833 21.8256L4.05915 24.317C4.12914 24.5279 4.26736 24.7095 4.45207 24.8329L9.43603 28.1552L8.29927 29.293C8.11181 29.4805 8.00633 29.7347 8.00633 29.9999V32.9992C8.00621 33.1543 8.04207 33.3073 8.11131 33.4461L10.1109 37.4453C10.2494 37.7215 10.5077 37.9182 10.8107 37.9782L15.0099 38.817V47.9961C15.0097 48.1231 15.0339 48.2491 15.0809 48.367L17.0804 53.366C17.1899 53.6391 17.4141 53.8501 17.6933 53.9429L20.6927 54.9427C20.7929 54.9767 20.8979 54.9941 21.0036 54.9946C21.5558 54.9946 22.0034 54.547 22.0034 53.9949V49.4958L25.6027 46.7964C25.8544 46.6075 26.0026 46.3112 26.0026 45.9965V43.4111L29.7088 39.7048C29.8482 39.5652 29.9431 39.3874 29.9818 39.1939L30.9815 34.195C31.0898 33.6535 30.7386 33.1268 30.1971 33.0186C30.1327 33.0057 30.0674 32.9992 30.0017 32.9992H26.5685L23.86 28.4852C23.6793 28.1844 23.3541 28.0004 23.0032 28.0003H16.6225L14.9049 24.554C14.761 24.2663 14.4876 24.0653 14.17 24.0141C13.8526 23.9592 13.5286 24.064 13.3032 24.294L12.0055 25.5868V24.0011C12.0055 23.7359 11.9 23.4817 11.7126 23.2943L10.0059 21.5876V19.869L16.1466 18.9921C16.2785 18.973 16.4053 18.9278 16.5196 18.8592L21.5185 15.8598C21.6587 15.7756 21.7762 15.6581 21.8604 15.5179L24.6699 10.8358L27.3183 9.95203C27.6174 9.85393 27.8521 9.61935 27.9502 9.32016L28.95 6.32079C29.1232 5.79652 28.8386 5.23102 28.3143 5.0578C28.266 5.0418 28.2164 5.02956 28.1661 5.02106L22.3793 4.05626L21.3625 3.3784C27.6541 1.33058 34.4684 1.58403 40.5905 4.09325L38.7639 5.00506H35.0007C34.6199 5.00294 34.2711 5.21739 34.1009 5.55795L32.1013 9.55711C31.855 10.0513 32.0558 10.6516 32.55 10.898C32.5921 10.919 32.6356 10.937 32.6802 10.9518L35.6796 11.9516C35.8595 12.0127 36.0532 12.0205 36.2374 11.9736L39.9547 11.0448L42.6781 11.9516C42.7171 11.9656 42.7572 11.9764 42.7981 11.9836L47.797 12.9834C48.057 13.0364 48.3274 12.9832 48.5479 12.8354L50.8234 11.3177C51.9433 12.5651 52.9497 13.9098 53.8308 15.3359L48.9118 16.9756L43.5859 16.0878L41.8263 13.4483C41.6418 13.1717 41.3319 13.005 40.9995 13.0034H35.0007C34.7355 13.0034 34.4813 13.1089 34.2938 13.2963L31.2945 16.2957C31.0718 16.5183 30.9669 16.8328 31.0115 17.1445L32.0113 24.1431C32.0617 24.4891 32.2891 24.7837 32.6112 24.9199L39.6097 27.9193C39.8102 28.0061 40.0339 28.024 40.2456 27.9703L43.8159 27.0775L45.9984 28.5352V31.9994C45.9967 32.1542 46.0309 32.3071 46.0984 32.4464L49.9976 40.2337V43.9969C49.9976 44.2621 50.1031 44.5163 50.2905 44.7038L52.3821 46.7964C43.1061 59.1604 25.5633 61.6639 13.1992 52.3878Z" fill="black"/>
</g>
<defs>
<clipPath id="clip0">
<rect width="60" height="60" fill="white"/>
</clipPath>
</defs>
</svg>
