<svg width="60" height="60" viewBox="0 0 60 60" fill="none" xmlns="http://www.w3.org/2000/svg">
<path d="M53.4375 5.625H6.5625C5.31975 5.62649 4.12834 6.12083 3.24958 6.99958C2.37083 7.87834 1.87649 9.06975 1.875 10.3125V42.1875C1.87649 43.4302 2.37083 44.6217 3.24958 45.5004C4.12834 46.3792 5.31975 46.8735 6.5625 46.875H21.4378L20.7347 52.5H19.6875C19.4389 52.5 19.2004 52.5988 19.0246 52.7746C18.8488 52.9504 18.75 53.1889 18.75 53.4375V56.25H15V58.125H45V56.25H41.25V53.4375C41.25 53.1889 41.1512 52.9504 40.9754 52.7746C40.7996 52.5988 40.5611 52.5 40.3125 52.5H39.2653L38.4375 45.8794V45H6.5625C5.81658 45 5.10121 44.7037 4.57376 44.1762C4.04632 43.6488 3.75 42.9334 3.75 42.1875V39.375H38.4375V37.5H3.75V10.3125C3.75 9.56658 4.04632 8.85121 4.57376 8.32376C5.10121 7.79632 5.81658 7.5 6.5625 7.5H53.4375C54.1834 7.5 54.8988 7.79632 55.4262 8.32376C55.9537 8.85121 56.25 9.56658 56.25 10.3125V37.5H47.8125V39.375H56.25V42.1875C56.25 42.9334 55.9537 43.6488 55.4262 44.1762C54.8988 44.7037 54.1834 45 53.4375 45H47.8125V46.875H53.4375C54.6802 46.8735 55.8717 46.3792 56.7504 45.5004C57.6292 44.6217 58.1235 43.4302 58.125 42.1875V10.3125C58.1235 9.06975 57.6292 7.87834 56.7504 6.99958C55.8717 6.12083 54.6802 5.62649 53.4375 5.625ZM39.375 56.25H20.625V54.375H39.375V56.25ZM22.6247 52.5L23.3278 46.875H36.6722L37.3753 52.5H22.6247Z" fill="black"/>
<path d="M52.5 41.25H50.625V43.125H52.5V41.25Z" fill="black"/>
<path d="M7.5 22.5C7.5 24.725 8.1598 26.9001 9.39597 28.7502C10.6321 30.6002 12.3891 32.0421 14.4448 32.8936C16.5005 33.7451 18.7625 33.9679 20.9448 33.5338C23.1271 33.0997 25.1316 32.0283 26.705 30.4549C28.2783 28.8816 29.3498 26.877 29.7838 24.6948C30.2179 22.5125 29.9951 20.2505 29.1436 18.1948C28.2922 16.1391 26.8502 14.3821 25.0002 13.146C23.1501 11.9098 20.975 11.25 18.75 11.25C15.7673 11.2532 12.9077 12.4395 10.7986 14.5486C8.68953 16.6577 7.50323 19.5173 7.5 22.5ZM28.125 22.5C28.125 24.3542 27.5752 26.1668 26.545 27.7085C25.5149 29.2502 24.0507 30.4518 22.3377 31.1614C20.6246 31.8709 18.7396 32.0566 16.921 31.6949C15.1025 31.3331 13.432 30.4402 12.1209 29.1291C10.8098 27.818 9.91687 26.1475 9.55514 24.329C9.1934 22.5104 9.37906 20.6254 10.0886 18.9123C10.7982 17.1993 11.9998 15.7351 13.5415 14.705C15.0832 13.6748 16.8958 13.125 18.75 13.125C21.2356 13.1277 23.6185 14.1163 25.3761 15.8739C27.1337 17.6314 28.1223 20.0144 28.125 22.5Z" fill="black"/>
<path d="M54.375 20.6249C54.3783 18.5201 53.7911 16.4565 52.68 14.6687C51.5689 12.881 49.9785 11.4408 48.0897 10.5119C46.2009 9.58302 44.0893 9.20266 41.9951 9.41407C39.9008 9.62548 37.9079 10.4202 36.2428 11.7078C34.5778 12.9955 33.3073 14.7245 32.576 16.6982C31.8446 18.6719 31.6816 20.8113 32.1055 22.873C32.5295 24.9348 33.5233 26.8362 34.9741 28.3613C36.4249 29.8863 38.2744 30.9737 40.3125 31.4999V47.8124C40.3125 48.5584 40.6088 49.2737 41.1363 49.8012C41.6637 50.3286 42.3791 50.6249 43.125 50.6249C43.8709 50.6249 44.5863 50.3286 45.1137 49.8012C45.6412 49.2737 45.9375 48.5584 45.9375 47.8124V31.4999C48.3486 30.8757 50.4848 29.4697 52.0115 27.5019C53.5383 25.5341 54.3695 23.1156 54.375 20.6249ZM33.75 20.6249C33.75 18.7707 34.2998 16.9582 35.33 15.4165C36.3601 13.8748 37.8243 12.6731 39.5373 11.9636C41.2504 11.254 43.1354 11.0683 44.954 11.4301C46.7725 11.7918 48.443 12.6847 49.7541 13.9958C51.0652 15.3069 51.9581 16.9774 52.3199 18.796C52.6816 20.6145 52.4959 22.4995 51.7864 24.2126C51.0768 25.9257 49.8752 27.3898 48.3335 28.42C46.7918 29.4501 44.9792 29.9999 43.125 29.9999C40.6394 29.9972 38.2564 29.0086 36.4989 27.2511C34.7413 25.4935 33.7527 23.1105 33.75 20.6249ZM44.0625 47.8124C44.0625 48.0611 43.9637 48.2995 43.7879 48.4754C43.6121 48.6512 43.3736 48.7499 43.125 48.7499C42.8764 48.7499 42.6379 48.6512 42.4621 48.4754C42.2863 48.2995 42.1875 48.0611 42.1875 47.8124V31.8271C42.4978 31.8534 42.8081 31.8749 43.125 31.8749C43.4419 31.8749 43.7522 31.8534 44.0625 31.8271V47.8124Z" fill="black"/>
<path d="M51.5625 20.625C51.5625 18.9562 51.0677 17.3249 50.1405 15.9374C49.2134 14.5498 47.8956 13.4684 46.3539 12.8298C44.8121 12.1912 43.1156 12.0241 41.4789 12.3496C39.8422 12.6752 38.3388 13.4788 37.1588 14.6588C35.9788 15.8388 35.1752 17.3422 34.8496 18.9789C34.5241 20.6156 34.6912 22.3121 35.3298 23.8539C35.9684 25.3956 37.0498 26.7134 38.4374 27.6405C39.8249 28.5677 41.4562 29.0625 43.125 29.0625C45.3619 29.0598 47.5065 28.17 49.0882 26.5882C50.6699 25.0065 51.5598 22.8619 51.5625 20.625ZM36.5625 20.625C36.5625 19.3271 36.9474 18.0583 37.6685 16.9791C38.3896 15.8999 39.4145 15.0587 40.6136 14.562C41.8128 14.0653 43.1323 13.9354 44.4053 14.1886C45.6783 14.4418 46.8476 15.0668 47.7654 15.9846C48.6832 16.9024 49.3082 18.0717 49.5614 19.3447C49.8146 20.6177 49.6847 21.9372 49.188 23.1364C48.6913 24.3355 47.8501 25.3604 46.7709 26.0815C45.6917 26.8026 44.4229 27.1875 43.125 27.1875C41.3851 27.1855 39.7171 26.4935 38.4868 25.2632C37.2565 24.0329 36.5645 22.3649 36.5625 20.625Z" fill="black"/>
<path d="M13.447 22.5C12.7437 23.2032 12.3486 24.1571 12.3486 25.1517C12.3486 26.1463 12.7437 27.1001 13.447 27.8034C14.1503 28.5067 15.1041 28.9018 16.0987 28.9018C17.0933 28.9018 18.0472 28.5067 18.7504 27.8034L24.0539 22.5C24.7572 21.7967 25.1523 20.8428 25.1523 19.8482C25.1523 18.8537 24.7572 17.8998 24.0539 17.1965C23.3506 16.4932 22.3968 16.0981 21.4022 16.0981C20.4076 16.0981 19.4537 16.4932 18.7504 17.1965L13.447 22.5ZM17.4248 26.4778C17.0731 26.8295 16.5961 27.0271 16.0987 27.0271C15.6013 27.0271 15.1243 26.8295 14.7726 26.4778C14.4209 26.1261 14.2233 25.6491 14.2233 25.1517C14.2233 24.9054 14.2719 24.6615 14.3661 24.434C14.4604 24.2065 14.5985 23.9997 14.7726 23.8256L16.762 21.8371L19.4133 24.4884L17.4248 26.4778ZM21.4026 17.9746C21.7732 17.9749 22.1354 18.085 22.4435 18.291C22.7516 18.497 22.9917 18.7896 23.1335 19.132C23.2754 19.4744 23.3126 19.8511 23.2404 20.2146C23.1683 20.5781 22.9901 20.9121 22.7283 21.1743L20.7389 23.1628L18.0876 20.5115L20.0761 18.5221C20.2504 18.3483 20.4573 18.2104 20.6849 18.1165C20.9125 18.0225 21.1564 17.9743 21.4026 17.9746Z" fill="black"/>
</svg>
