<svg width="12" height="11" viewBox="0 0 12 11" fill="none" xmlns="http://www.w3.org/2000/svg">
<path d="M11.5468 9.9731L8.43183 6.87451C9.02265 6.14895 9.37829 5.22653 9.37829 4.22224C9.37829 1.89411 7.47416 0 5.13372 0C2.79327 0 0.88916 1.89411 0.88916 4.22224C0.88916 6.55037 2.79329 8.44448 5.13374 8.44448C6.14335 8.44448 7.07064 8.09068 7.80005 7.50299L10.915 10.6016C11.0023 10.6884 11.1437 10.6884 11.231 10.6016L11.5468 10.2874C11.6341 10.2006 11.6341 10.0599 11.5468 9.9731ZM5.13374 7.55558C3.2859 7.55558 1.78276 6.06035 1.78276 4.22224C1.78276 2.38413 3.2859 0.888898 5.13374 0.888898C6.98157 0.888898 8.48471 2.38413 8.48471 4.22224C8.48471 6.06035 6.98157 7.55558 5.13374 7.55558Z" fill="#007CC3"/>
</svg>
